# xmcd CD database file
#
# Track frame offsets:
#	150
#	24815
#	40395
#	61488
#	85313
#	98115
#	121438
#	147783
#	176748
#	190693
#	216213
#	231430
#	253595
#	268313
#	280123
#	297860
#	312988
#	320633
#
# Disc length: 4461 seconds
#
# Revision: 0
# Processed by: cddbd v1.4PL0 Copyright (c) Steve Scherf et al.
# Submitted via: CDex 1.50Beta7
#
DISCID=11116b12
DTITLE=Susan James - Fantastic Voyage
DYEAR=1998
DGENRE=Jazz
TTITLE0=Manna
TTITLE1=Static
TTITLE2=The Blood Of Experience
TTITLE3=Fantastic Voyage
TTITLE4=Love
TTITLE5=Every Side Of Lonely
TTITLE6=Love&Luck&Sin
TTITLE7=Falling Waltz
TTITLE8=All She Ever Wanted
TTITLE9=Spinning Down
TTITLE10=From Black Sheep
TTITLE11=My Don Don Song
TTITLE12=The Bean March
TTITLE13=Happy Camper
TTITLE14=Dark Mississippi
TTITLE15=Drone
TTITLE16=Stringfellow's Garden Is Growling
TTITLE17=To Black Sheep
EXTD=YEAR: 1998
EXTT0=
EXTT1=
EXTT2=
EXTT3=
EXTT4=
EXTT5=
EXTT6=
EXTT7=
EXTT8=
EXTT9=
EXTT10=
EXTT11=
EXTT12=
EXTT13=
EXTT14=
EXTT15=
EXTT16=
EXTT17=
PLAYORDER=
